:SAMPLES-PER-SECOND 30
:FULLY-SPECIFIED
:DEGREES
462
root  -58.0894 38.9399 16.8757 -158.014 -2.35309 177.746
RightUpLeg  -53.528 -26.9425 12.4032
RightLeg  28.7277 -13.3595 -8.04643
RightFoot  0.0940961 0.603082 -6.01171
RightToes  0.00048216 0.542163 -0.142577
Spine  62.3525 -9.28516 6.59329
Spine1  0.4965 -0.912544 -22.9624
HEad  -24.773 -3.68943 22.367
LeftShoulder1  7.42767 -22.22 -22.3959
LeftArm  -37.8456 -37.7949 -12.9644
LeftForeArm  6.79092 -31.437 -6.52438
LeftHand  -0.25398 0.0180481 5.50724
RightShoulder  6.86294 14.8091 31.5226
RightArm  -0.344179 65.0223 47.7538
RightForeArm  0.249726 12.8572 7.97769
RightHand  -4.00023 16.0236 -21.9127
LeftUpLeg  -52.5306 32.0737 -15.6111
LeftLeg  21.0303 -2.79645 -0.856122
LeftFoot  5.57181 -0.0967371 0.422794
LeftToes  1.06246e-005 4.65856e-005 -8.18501e-006
463
root  -58.9409 39.0166 16.8868 -155.611 -1.17014 177.942
RightUpLeg  -55.9347 -28.8739 14.5168
RightLeg  25.5765 -9.78669 -5.28906
RightFoot  1.09254 0.538156 -4.87081
RightToes  0.00048216 0.542163 -0.142577
Spine  63.2314 -8.0989 7.00488
Spine1  1.72055 0.95847 -22.1161
HEad  -28.2337 -6.09197 21.6925
LeftShoulder1  7.887 -25.5634 -20.8084
LeftArm  -42.4194 -41.4266 -12.2762
LeftForeArm  7.47108 -27.8613 -5.62642
LeftHand  -0.25398 0.0180481 5.50724
RightShoulder  5.63049 12.8451 28.4552
RightArm  -7.85764 68.7038 42.692
RightForeArm  1.47798 10.6948 7.9589
RightHand  -4.11711 16.437 -22.1151
LeftUpLeg  -55.6565 32.3079 -19.2932
LeftLeg  20.8766 -3.17971 -1.00818
LeftFoot  4.98352 -0.294306 1.83683
LeftToes  1.06246e-005 4.65856e-005 -8.18501e-006
464
root  -59.724 39.045 16.8847 -153.314 -0.0258179 178.231
RightUpLeg  -59.1547 -30.9129 17.6175
RightLeg  23.2755 -6.15896 -3.11395
RightFoot  2.69831 0.52623 -4.11595
RightToes  0.00048216 0.542163 -0.142577
Spine  62.252 -5.16201 8.527
Spine1  6.08905 5.2068 -19.2036
HEad  -33.9572 -11.5198 20.5353
LeftShoulder1  8.50828 -32.4059 -16.6036
LeftArm  -51.5131 -45.4921 -14.3724
LeftForeArm  11.0738 -23.7912 -4.45819
LeftHand  -0.25398 0.0180481 5.50724
RightShoulder  3.2048 7.22711 23.441
RightArm  -18.0782 72.5352 33.7914
RightForeArm  -0.00520304 9.72901 7.28434
RightHand  -4.20749 16.623 -22.3952
LeftUpLeg  -58.8589 32.4348 -22.7868
LeftLeg  20.9419 -3.60491 -1.19131
LeftFoot  4.65501 -0.48049 3.2188
LeftToes  1.06246e-005 4.65856e-005 -8.18501e-006
465
root  -60.4147 39.0178 16.8621 -151.198 0.723785 178.217
RightUpLeg  -62.5898 -32.5986 20.6137
RightLeg  21.658 -3.51157 -1.74927
RightFoot  4.24186 0.560201 -3.87565
RightToes  0.00048216 0.542163 -0.142577
Spine  61.694 -2.17096 6.36019
Spine1  10.4438 5.09039 -10.2707
HEad  -37.8315 -10.6511 15.1502
LeftShoulder1  9.66489 -31.5358 -20.8529
LeftArm  -59.6032 -50.8613 -7.93659
LeftForeArm  9.85397 -21.2089 -3.53828
LeftHand  -0.25398 0.0180481 5.50724
RightShoulder  1.60704 5.43871 11.0584
RightArm  -24.6231 75.9425 34.7058
RightForeArm  0.33017 7.95298 5.68089
RightHand  -4.22807 16.7097 -22.415
LeftUpLeg  -61.7885 32.0303 -26.0533
LeftLeg  21.3315 -3.98439 -1.38253
LeftFoot  3.96202 -0.643996 4.61502
LeftToes  1.06246e-005 4.65856e-005 -8.18501e-006
466
root  -61.0107 38.9286 16.8068 -149.369 1.12219 177.973
RightUpLeg  -65.301 -33.1648 21.9579
RightLeg  20.8456 -2.17064 -1.12829
RightFoot  5.39854 0.608757 -3.88161
RightToes  0.00048216 0.542163 -0.142577
Spine  62.3631 -1.94347 6.4974
Spine1  11.3146 5.33876 -9.44303
HEad  -39.7866 -11.1595 14.6271
LeftShoulder1  9.63389 -32.8778 -19.6313
LeftArm  -63.7527 -53.0043 -5.73843
LeftForeArm  9.15423 -19.8838 -2.5594
LeftHand  -0.25398 0.0180481 5.50724
RightShoulder  1.42595 4.72741 10.0789
RightArm  -35.3444 77.4133 23.23
RightForeArm  -0.57584 7.06313 5.20536
RightHand  -4.17227 16.7667 -22.0798
LeftUpLeg  -64.1745 31.1705 -28.7581
LeftLeg  22.0908 -4.14285 -1.51402
LeftFoot  2.86828 -0.73265 5.73142
LeftToes  1.06246e-005 4.65856e-005 -8.18501e-006
